<?xml version="1.0" standalone="no"?>
<!DOCTYPE svg PUBLIC "-//W3C//DTD SVG 20010904//EN"
 "http://www.w3.org/TR/2001/REC-SVG-20010904/DTD/svg10.dtd">
<svg version="1.0" xmlns="http://www.w3.org/2000/svg"
 width="1600.000000pt" height="1600.000000pt" viewBox="0 0 1600.000000 1600.000000"
 preserveAspectRatio="xMidYMid meet">
<metadata>
Created by potrace 1.11, written by Peter Selinger 2001-2013
</metadata>
<g transform="translate(0.000000,1600.000000) scale(0.100000,-0.100000)"
fill="#000000" stroke="none">
<path d="M7998 15926 c-1 -2 -60 -6 -130 -10 -71 -4 -134 -8 -140 -11 -7 -2
-38 -6 -68 -9 -30 -2 -62 -7 -70 -10 -8 -3 -31 -7 -50 -10 -60 -9 -260 -63
-355 -96 -131 -46 -396 -178 -511 -256 -232 -156 -403 -314 -597 -553 -10 -12
-37 -50 -61 -84 -352 -503 -503 -1121 -416 -1697 5 -36 10 -69 10 -74 0 -4 42
-5 93 -1 793 63 1582 -188 2197 -699 170 -141 367 -346 481 -501 24 -33 46
-62 50 -65 6 -5 123 -184 157 -240 181 -301 339 -747 387 -1095 3 -23 7 -52
10 -65 26 -135 27 -616 0 -781 -2 -13 -8 -58 -15 -99 -24 -164 -94 -436 -151
-590 -66 -178 -197 -450 -256 -528 -85 -114 -262 -154 -390 -88 -113 57 -185
177 -178 298 4 64 7 72 105 273 125 256 178 410 224 658 34 177 40 249 40 462
1 178 -6 283 -24 380 -5 28 -11 64 -14 80 -10 75 -76 312 -105 380 -5 11 -25
61 -46 110 -155 375 -434 733 -770 987 -219 165 -437 280 -705 371 -67 22
-135 41 -135 37 0 -1 -13 3 -28 9 -60 23 -247 55 -387 67 -147 13 -406 7 -525
-11 -16 -3 -46 -7 -65 -10 -285 -41 -645 -176 -903 -339 -93 -59 -250 -174
-307 -226 -160 -147 -269 -266 -362 -395 -4 -5 -18 -23 -31 -40 -140 -181
-331 -600 -372 -816 -2 -12 -6 -28 -9 -37 -3 -9 -7 -28 -10 -42 -3 -14 -7 -35
-10 -47 -2 -11 -8 -43 -12 -70 -3 -26 -8 -57 -10 -68 -28 -150 -22 -493 10
-695 110 -681 529 -1308 1116 -1674 95 -59 264 -111 480 -146 36 -6 76 -13 90
-16 71 -13 211 -34 255 -39 28 -3 61 -8 75 -10 14 -2 54 -6 90 -10 36 -4 76
-8 91 -11 14 -2 56 -6 95 -9 38 -3 89 -8 114 -10 25 -3 81 -7 125 -10 44 -2
103 -7 130 -10 66 -6 180 -13 345 -21 74 -3 160 -7 190 -9 442 -26 1881 -27
2450 0 146 6 319 16 375 20 33 2 101 7 150 11 50 3 108 7 130 10 22 2 72 6
110 9 39 2 93 7 120 10 28 3 70 7 95 10 25 2 86 9 135 15 50 6 110 13 135 16
39 5 160 23 265 40 199 32 494 99 603 138 154 55 513 364 680 586 40 52 76
100 80 105 24 30 126 203 161 273 104 206 193 475 226 682 4 25 9 53 11 63 26
144 26 627 -1 727 -2 8 -7 35 -10 60 -14 98 -61 275 -110 410 -114 312 -306
616 -541 855 -128 130 -162 160 -269 242 -169 128 -333 224 -528 307 -93 39
-289 106 -357 121 -341 73 -567 86 -893 49 -109 -12 -353 -67 -475 -106 -130
-42 -190 -50 -252 -36 -109 27 -213 129 -237 232 -17 79 -3 185 34 244 25 40
91 100 132 121 73 38 350 117 521 150 257 50 544 66 813 47 87 -7 107 -6 108
5 1 26 9 94 15 124 9 54 12 409 3 485 -20 180 -49 319 -95 470 -122 392 -313
710 -604 1001 -145 145 -222 210 -366 307 -303 204 -671 346 -1004 387 -30 4
-64 9 -75 11 -11 2 -72 6 -135 10 -63 3 -120 7 -127 9 -6 2 -13 2 -15 1z"/>
<path d="M11040 7309 c-19 -5 -55 -11 -80 -15 -25 -3 -52 -7 -60 -8 -17 -3
-95 -16 -125 -22 -29 -5 -332 -52 -385 -59 -25 -3 -56 -8 -70 -10 -14 -2 -50
-6 -80 -10 -30 -3 -66 -8 -80 -10 -14 -2 -54 -7 -90 -10 -36 -4 -72 -8 -80
-10 -8 -2 -46 -6 -85 -10 -38 -3 -81 -8 -95 -10 -14 -2 -56 -7 -95 -10 -38 -3
-90 -8 -115 -10 -25 -2 -76 -7 -115 -10 -38 -3 -88 -8 -110 -10 -22 -2 -87 -7
-145 -10 -58 -3 -127 -8 -155 -10 -59 -5 -296 -17 -342 -18 -18 0 -33 -2 -33
-5 0 -8 1057 -1062 1066 -1062 4 0 254 249 556 553 302 303 597 600 655 659
59 59 105 109 102 111 -2 2 -20 0 -39 -4z"/>
<path d="M4940 7291 c0 -3 293 -298 650 -655 l650 -650 530 530 c291 291 530
531 530 534 0 3 -19 6 -42 7 -59 2 -267 12 -353 18 -38 3 -108 7 -155 10 -129
8 -222 16 -255 20 -16 2 -68 7 -115 10 -47 3 -96 7 -110 9 -14 3 -61 7 -105
11 -91 8 -82 7 -310 35 -226 27 -222 27 -360 45 -123 16 -161 22 -205 30 -14
2 -45 7 -70 10 -25 3 -88 13 -140 21 -140 22 -140 22 -140 15z"/>
<path d="M7347 6192 c-356 -356 -647 -651 -647 -656 0 -5 295 -303 655 -663
l654 -654 648 651 c356 358 650 653 652 656 5 4 -1300 1314 -1309 1314 -3 0
-296 -291 -653 -648z"/>
<path d="M5083 6230 c2 -8 66 -157 142 -330 140 -323 155 -356 186 -425 10
-22 34 -78 54 -125 20 -46 38 -86 41 -89 2 -2 67 59 143 136 l139 139 -355
355 c-196 195 -353 347 -350 339z"/>
<path d="M10566 5881 l-349 -350 137 -137 c75 -76 138 -135 140 -133 5 5 31
64 96 214 29 66 60 138 70 160 10 22 64 146 120 275 95 220 128 295 137 313 2
4 3 7 1 7 -2 0 -160 -157 -352 -349z"/>
<path d="M6007 4852 l-228 -228 30 -65 c16 -35 47 -107 69 -159 39 -92 188
-438 230 -530 11 -25 48 -110 82 -190 35 -80 71 -163 81 -185 25 -55 222 -509
267 -617 20 -48 39 -88 42 -88 3 0 210 205 460 456 250 251 470 470 488 487
l33 31 -658 658 c-362 362 -660 658 -663 658 -3 0 -108 -103 -233 -228z"/>
<path d="M9118 4425 c-354 -355 -645 -650 -647 -656 -3 -11 941 -959 956 -959
4 0 15 19 24 43 17 46 545 1259 585 1344 13 28 24 54 24 57 0 3 16 40 35 82
19 41 35 78 35 80 0 3 9 24 19 47 11 23 31 69 45 102 l27 59 -223 223 c-123
123 -226 223 -230 223 -4 0 -296 -290 -650 -645z"/>
<path d="M7435 2735 c-313 -316 -571 -579 -573 -584 -3 -9 53 -145 124 -299
19 -41 34 -77 34 -81 0 -4 14 -35 30 -69 17 -34 30 -65 30 -68 0 -3 9 -24 19
-47 11 -23 52 -116 91 -207 39 -91 80 -183 90 -205 10 -22 91 -209 180 -415
89 -206 170 -393 180 -415 10 -22 28 -65 41 -95 43 -102 78 -151 144 -196 96
-67 253 -67 350 -1 68 47 97 92 178 277 21 47 172 395 236 545 29 66 58 134
66 150 7 17 23 53 35 80 12 28 29 66 37 85 35 80 44 100 96 220 30 69 63 145
74 170 12 25 74 168 138 318 l118 274 -569 569 c-313 313 -571 569 -574 569
-3 -1 -261 -259 -575 -575z"/>
</g>
</svg>
